<svg width="68" height="59" viewBox="0 0 68 59" fill="none" xmlns="http://www.w3.org/2000/svg">
<path d="M42.4076 27.4752C42.4279 27.4913 42.4537 27.4987 42.4795 27.4957C42.5052 27.4928 42.5287 27.4797 42.5448 27.4594C42.5609 27.4392 42.5683 27.4133 42.5653 27.3876C42.5624 27.3618 42.5493 27.3383 42.529 27.3222C42.529 27.3222 42.529 27.3222 42.529 27.3222C42.4011 27.2207 42.2734 27.1193 42.1463 27.0173C41.3 26.3456 40.5043 25.6174 39.7812 24.817C39.7631 24.7971 39.7449 24.777 39.7267 24.7568C38.513 23.3982 37.4185 21.9285 36.3123 20.4732C36.2138 20.3429 36.1154 20.2127 36.0169 20.0823C36.0013 20.0616 35.9781 20.048 35.9524 20.0445C35.9268 20.0409 35.9007 20.0477 35.8801 20.0633C35.8594 20.0789 35.8458 20.1021 35.8422 20.1277C35.8387 20.1534 35.8454 20.1794 35.8611 20.2001C35.8611 20.2001 35.8611 20.2001 35.8611 20.2001C35.9596 20.3305 36.058 20.4607 36.1566 20.591C37.2635 22.0472 38.358 23.5176 39.5817 24.8877C39.6001 24.9081 39.6185 24.9283 39.6367 24.9484C40.3658 25.7557 41.1738 26.4949 42.0241 27.1696C42.1517 27.272 42.2797 27.3736 42.4076 27.4752Z" fill="#FF2D2D"/>
<path d="M36.2075 26.6351C36.555 26.9102 36.9974 27.036 37.4376 26.9848C37.8778 26.9336 38.2796 26.7097 38.5547 26.3623C38.8298 26.0148 38.9556 25.5724 38.9044 25.1322C38.8533 24.692 38.6294 24.2902 38.2819 24.0151C38.2819 24.0151 38.2819 24.0151 38.2819 24.0151C36.6767 22.7428 35.0768 21.3918 33.4914 20.0299C25.7408 13.5517 18.9817 6.32542 9.71746 0.70232C9.05512 0.400859 8.443 0.0753839 7.31125 5.126e-06C4.66354 -0.00339603 3.00522 1.67277 1.83386 3.16629C1.33165 3.83171 0.908021 4.5443 0.570458 5.3248C-1.45919 12.0335 2.38309 16.9651 4.96503 21.5763C7.87619 26.1783 11.1801 30.3878 14.596 34.5146C21.4133 42.7486 28.8487 50.4204 35.7423 58.3811C35.9175 58.5874 36.0914 58.7862 36.2635 58.9777L38.6754 57.0021C36.9423 54.9081 35.1135 52.1159 34.3424 49.0846C34.3061 48.9375 34.2725 48.7899 34.2419 48.6416C34.2179 48.5252 34.1954 48.4084 34.1745 48.2913L34.177 48.3351C34.0432 46.5641 34.4306 44.7759 34.7996 42.9924C34.8083 42.9497 34.7992 42.9043 34.7755 42.8666C34.7517 42.8288 34.7153 42.8018 34.673 42.7912C34.6308 42.7805 34.5859 42.7871 34.5471 42.809C34.5083 42.831 34.4788 42.8667 34.4663 42.9084C34.4663 42.9084 34.4663 42.9084 34.4663 42.9084C33.9384 44.6523 33.4591 46.4484 33.3521 48.3379L33.3545 48.3817C33.3603 48.5061 33.3669 48.6305 33.3743 48.7549C33.3838 48.9135 33.3942 49.0718 33.4055 49.2306C33.6855 52.5025 34.1128 55.9233 36.2449 58.955L38.6568 56.9794C38.4931 56.7688 38.3212 56.557 38.1408 56.3446C25.2325 40.4045 4.78245 25.0796 3.44103 6.56005C3.66557 6.03877 3.9721 5.51926 4.32529 5.05266C5.14432 3.93913 6.38102 3.19385 7.17333 3.30029C7.2841 3.30414 7.79981 3.47619 8.25069 3.70502C16.2989 8.57696 23.6344 16.1021 31.3129 22.5641C32.9169 23.9418 34.5419 25.3147 36.2075 26.6351Z" fill="#FF2D2D"/>
<path d="M38.6105 28.6586C38.6697 28.989 38.8577 29.2824 39.1332 29.4742C39.4087 29.666 39.7491 29.7404 40.0795 29.6812C40.4099 29.622 40.7033 29.434 40.895 29.1585C41.0868 28.883 41.1613 28.5427 41.1021 28.2123C41.1021 28.2123 41.1021 28.2123 41.1021 28.2123C40.983 27.1188 41.3656 25.263 41.7563 23.7372C43.1828 18.4024 45.5645 13.2074 48.8909 8.83399C49.0249 8.65954 49.1812 8.4969 49.3599 8.34467C51.5579 6.61244 55.3951 6.61126 58.8493 6.48305C58.9847 6.47893 59.1201 6.47576 59.2546 6.47332C60.3971 6.45898 61.4634 6.98927 62.3337 7.70799C62.5207 7.86176 62.6965 8.02899 62.8568 8.20602C66.2169 12.3052 61.2227 19.6232 58.0903 25.0678C54.5355 30.8269 50.6534 36.447 46.8037 42.1113L46.7895 42.1326C46.703 42.2637 46.6179 42.3934 46.534 42.5216C44.493 45.5988 42.5879 48.9156 40.9237 52.0922C40.8159 52.2911 40.7112 52.4824 40.6066 52.6669C40.0126 53.721 39.5082 54.4477 38.7451 55.0053C37.76 55.7414 36.2366 56.1948 34.6253 56.5161C34.396 56.5606 34.1766 56.669 34.0156 56.8438C33.8545 57.0184 33.7651 57.242 33.7669 57.4721C33.7687 57.7022 33.8617 57.9245 34.0254 58.0965C34.1892 58.2687 34.4103 58.3737 34.6403 58.4145C34.6403 58.4145 34.6403 58.4145 34.6403 58.4145C36.4059 58.6945 38.3808 58.7716 40.3648 57.8128C41.9026 57.0812 43.0325 55.6369 43.6991 54.4196C43.8233 54.2004 43.9392 53.9869 44.0515 53.777C45.7616 50.4719 47.3503 47.3688 49.3276 44.3342C49.408 44.2093 49.4898 44.0828 49.573 43.9548L49.5588 43.9761C53.3724 38.2798 57.2274 32.6355 60.8253 26.7354C62.6065 23.7734 64.3494 20.7718 65.7043 17.4318C66.9349 14.3217 68.3383 9.58945 65.1339 6.12572C64.8679 5.8361 64.5819 5.56806 64.2783 5.32194C62.8612 4.16616 60.9626 3.61651 59.138 3.74233C59.0051 3.75131 58.8706 3.75947 58.7354 3.76669C55.2143 4.07187 51.3401 3.75868 47.7183 6.41787C47.4167 6.67477 47.1339 6.96612 46.884 7.29136C43.2963 12.0223 40.8334 17.4153 39.3056 23.1036C38.9052 24.8584 38.404 26.3604 38.6105 28.6586Z" fill="#FF2D2D"/>
<path d="M20.5195 9.77333C20.5195 10.053 20.6306 10.3213 20.8284 10.5191C21.0262 10.7169 21.2944 10.828 21.5742 10.828C21.8539 10.828 22.1221 10.7169 22.3199 10.5191C22.5177 10.3213 22.6288 10.053 22.6288 9.77333C22.6275 9.69324 22.6272 9.59717 22.5827 9.43613C22.5717 9.40213 22.5049 9.14031 22.2637 8.92476C22.1439 8.81524 21.9734 8.72111 21.8019 8.68034C21.6455 8.64253 21.5157 8.644 21.4022 8.65856C21.1766 8.69121 21.0497 8.76473 20.9596 8.81886C20.9043 8.85368 20.869 8.88084 20.8354 8.90809C20.7726 8.95925 20.7203 9.01378 20.6969 9.03909C20.5935 9.15309 20.5483 9.22092 20.4976 9.29263C20.409 9.42133 20.3416 9.53191 20.2726 9.64696C20.1399 9.87015 20.0279 10.0721 19.9101 10.2877C19.6827 10.7053 19.465 11.1227 19.2503 11.539C18.8205 12.3737 18.4044 13.2031 17.9886 14.0351C17.158 15.6988 16.3361 17.3625 15.511 19.0246C15.4118 19.2245 15.3108 19.4261 15.208 19.6295C15.2093 19.6268 15.2138 19.6171 15.2262 19.5965C15.2399 19.5779 15.2499 19.5445 15.355 19.4367C15.3814 19.4109 15.4141 19.3814 15.4574 19.3493C15.4926 19.3247 15.5681 19.2645 15.724 19.2081C15.8711 19.1543 16.0876 19.1264 16.2952 19.1751C16.514 19.2262 16.6479 19.3214 16.7366 19.3952C16.9197 19.556 16.9735 19.6849 17.0103 19.7645C17.0329 19.8182 17.0418 19.8488 17.0497 19.8768C17.0872 20.0475 17.0644 19.957 17.0694 19.9297C17.0698 19.8479 17.0781 19.7119 17.0889 19.5934C17.1116 19.3394 17.1462 19.0704 17.1856 18.8003C17.2655 18.256 17.364 17.7139 17.4738 17.1657C17.6931 16.0769 17.9538 14.9883 18.2431 13.921C18.3172 13.648 18.3933 13.377 18.4719 13.1068C18.5249 12.9243 18.5802 12.7404 18.6362 12.5609C18.6756 12.3848 18.7474 12.2977 18.7139 11.8222C18.7197 11.6044 18.4271 10.8503 17.7573 10.6827C17.4428 10.6002 17.3124 10.628 17.1753 10.6406C17.0498 10.6567 16.9249 10.6949 16.8753 10.7122C16.3858 10.9061 16.3064 11.0134 16.1154 11.1409C15.797 11.3782 15.542 11.6026 15.2915 11.8256C14.7959 12.2704 14.3311 12.7202 13.8757 13.1669C12.9655 14.0592 12.0813 14.9761 11.2193 15.8163C11.0366 15.9929 10.8279 16.1876 10.7009 16.2876C10.4729 16.4684 10.2706 16.6039 10.1259 16.6768C10.0545 16.7144 9.99868 16.7268 10.0392 16.7158C10.0667 16.7076 10.3013 16.671 10.565 16.8253C10.8316 16.9886 10.8817 17.162 10.8895 17.1726C10.8968 17.1943 10.8794 17.1334 10.873 17.0479C10.8573 16.8732 10.8645 16.618 10.8909 16.3403C11.0018 15.2445 11.3063 13.9963 11.6183 12.7892C11.9369 11.5685 12.293 10.3394 12.6413 9.09103C12.8142 8.46955 12.9898 7.83168 13.1496 7.17636C13.2269 6.85662 13.3038 6.52521 13.3724 6.14808C13.4023 5.98378 13.4379 5.75841 13.4569 5.56287C13.472 5.30979 13.5212 5.10707 13.4138 4.59269C13.3662 4.39937 13.3181 4.21782 13.2689 4.04671C13.1332 3.61681 13.0245 3.13136 12.5981 2.47579C12.5205 2.36448 12.4308 2.25195 12.3161 2.13882C12.186 2.01971 12.1146 1.93537 11.8034 1.77549C11.233 1.45745 10.3537 1.65319 10.0109 1.9601C9.67034 2.22838 9.57161 2.39971 9.43501 2.60746C9.34332 2.7565 9.27012 2.90178 9.20312 3.05152C8.76208 4.11309 8.6306 4.9281 8.45611 5.81723C8.148 7.53256 7.96204 9.24327 7.81767 10.9444C7.67681 12.6465 7.58464 14.3555 7.55824 16.0686C7.54619 16.9364 7.54989 17.7961 7.5933 18.6763C7.61712 19.1381 7.64969 19.5866 7.71225 20.055C7.75078 20.327 7.78012 20.5259 7.86337 20.856C7.90381 21.0046 7.94107 21.1489 8.04799 21.391C8.10562 21.5124 8.14114 21.5944 8.27356 21.7816C8.42098 21.9803 8.66073 22.2447 9.09044 22.4015C10.4603 22.812 11.2942 22.3487 11.9713 22.0788C12.6534 21.7628 13.2199 21.4033 13.761 21.0436C15.3776 19.9626 17.2443 18.4328 18.1228 18.1992C18.7217 18.0811 19.2565 18.0982 19.4213 18.1724C19.5257 18.2412 19.4093 18.1059 19.4809 18.2608C19.5291 18.4183 19.5411 18.7751 19.4822 19.1751C19.3663 19.986 19.0615 20.9082 18.7065 21.8138C17.9799 23.6458 17.0411 25.4676 16.0695 27.2742C14.1554 31.0483 11.8071 33.9508 10.1844 38.869C10.1626 39.0053 10.1475 39.1525 10.151 39.325C10.1537 39.4159 10.1574 39.4889 10.1777 39.6186C10.2022 39.7678 10.2463 39.9362 10.329 40.1155C10.4725 40.462 10.8837 40.8969 11.3308 41.0492C11.8142 41.2121 12.0044 41.1703 12.2294 41.1567C12.9826 41.0313 13.1352 40.8671 13.423 40.7269C13.8943 40.4572 14.2793 40.1717 14.623 39.9124C20.5459 35.0472 25.4939 29.7314 30.9331 24.8936C30.9834 24.8489 31.0253 24.8144 31.0557 24.7909C31.0947 24.7586 31.1427 24.7355 31.0707 24.7739C31.0373 24.7871 30.9733 24.8323 30.745 24.8698C30.6351 24.8856 30.4907 24.8925 30.3213 24.8657C30.1046 24.8334 29.8494 24.7316 29.6532 24.5807C29.2298 24.2306 29.2025 24.0125 29.1429 23.8611C29.0998 23.7024 29.1081 23.6858 29.1039 23.6562C29.1026 23.6147 29.1034 23.6699 29.0941 23.7335C29.0585 24.0141 28.9262 24.5086 28.7957 24.9238C28.5156 25.8169 28.164 26.7412 27.7973 27.6599C27.0561 29.5073 26.2417 31.343 25.4033 33.1695C23.7177 36.8178 21.9348 40.4784 20.048 43.968C20.0112 44.0369 19.9698 44.1128 19.9159 44.257C19.8894 44.3309 19.8583 44.4222 19.8313 44.5679C19.8183 44.6413 19.8063 44.729 19.8033 44.8414C19.8025 44.8694 19.8024 44.8991 19.8032 44.9305C19.8036 44.9462 19.8041 44.9621 19.805 44.979C19.8071 45.0198 19.8107 45.0634 19.8165 45.11C19.84 45.2944 19.8983 45.5377 20.0535 45.7987C20.3528 46.3607 21.117 46.675 21.4958 46.6598C21.9002 46.6697 22.089 46.5867 22.2281 46.5383C22.3903 46.4718 22.374 46.473 22.4077 46.4573C22.433 46.4443 22.4555 46.432 22.4762 46.4204C22.5582 46.3737 22.6126 46.3366 22.6599 46.3033C22.8665 46.1509 22.8639 46.143 22.9495 46.0705C23.0994 45.9367 23.163 45.8747 23.2824 45.7595C29.2471 39.533 34.598 33.1564 39.9194 26.5555C40.3497 26.0166 40.7812 25.4719 41.2061 24.9308C41.4268 24.6496 41.624 24.4076 41.7963 24.2049C42.0144 23.9492 42.1808 23.7644 42.3594 23.5912C42.4408 23.5111 42.515 23.458 42.4721 23.4882C42.4541 23.4996 42.42 23.5211 42.3569 23.5502C42.3253 23.5647 42.2862 23.5811 42.2372 23.5978C42.2127 23.6062 42.1857 23.6147 42.1559 23.6229C42.1091 23.6359 42.0374 23.6523 41.9613 23.6625C41.6702 23.718 41.0731 23.632 40.6865 23.2841C40.3216 22.9551 40.2589 22.7273 40.1929 22.5465C40.0982 22.1833 40.1426 22.1893 40.1342 22.1626C40.1352 22.1473 40.1337 22.1727 40.1249 22.2211C40.1127 22.2902 40.0875 22.4033 40.049 22.5456C39.7506 23.6033 39.2362 24.863 38.7395 26.0599C37.7262 28.4742 36.6259 30.8806 35.515 33.2957C33.311 38.2672 30.9413 42.4252 28.9223 48.3672C28.8407 48.9217 28.792 49.322 28.7666 49.8652C28.7587 50.057 28.7572 50.2416 28.7638 50.4234C28.7671 50.5143 28.7725 50.6046 28.7804 50.695C28.7844 50.7402 28.789 50.7855 28.7944 50.8309C28.8028 50.9024 28.8134 50.9764 28.8263 51.0504C28.8801 51.346 28.961 51.6631 29.1712 52.0245C29.3076 52.263 29.5898 52.6085 29.9687 52.8222C30.3395 53.0482 30.8412 53.1245 31.1078 53.1084C31.7098 53.0928 32.1776 52.8298 32.3708 52.7139C32.5779 52.5886 32.754 52.4545 32.922 52.3121C33.1064 52.154 33.2068 52.0551 33.3226 51.94C33.4363 51.8259 33.5489 51.7063 33.6622 51.5805C34.4739 50.667 35.1272 49.7261 35.7367 48.8347C36.9681 47.0121 38.0931 45.1602 39.1951 43.3103C41.3759 39.6349 43.4801 35.8878 45.5657 32.1749C49.7626 24.8929 53.7873 16.7631 58.5046 10.7645C58.6174 10.6539 58.7023 10.5806 58.7352 10.555C58.7576 10.5358 58.759 10.5445 58.6567 10.5987C58.5802 10.6253 58.6198 10.6573 58.2002 10.7396C58.0098 10.7669 57.7213 10.774 57.3902 10.6563C57.0613 10.5488 56.7284 10.2679 56.5871 10.0651C56.2622 9.60936 56.2677 9.29668 56.2548 9.14761C56.254 8.97517 56.2599 9.00417 56.2628 8.9638C56.27 8.91556 56.2685 8.93677 56.2567 8.97696C56.2404 9.03653 56.2001 9.15855 56.1472 9.29765C55.9614 9.7867 55.6663 10.4222 55.4021 10.9698C49.9478 21.7557 43.4715 32.2231 38.2122 43.5108C38.1092 43.7454 38.0389 43.9092 37.9512 44.1809C37.8938 44.3895 37.8278 44.532 37.8185 44.9879C37.8283 45.2279 37.8362 45.6146 38.1838 46.1176C38.4901 46.6397 39.4154 46.9359 39.6239 46.8988C40.2988 46.9063 40.5377 46.7192 40.7391 46.6228C41.0246 46.4526 41.0755 46.3969 41.2111 46.2882C41.3425 46.1769 41.4038 46.1184 41.4808 46.0459C41.6273 45.9071 41.7955 45.7339 41.9037 45.6193C42.4347 45.0539 42.8447 44.5702 43.3041 44.0259C49.2103 36.9672 54.8576 28.7652 60.6665 23.0691L57.8712 21.0055C57.6445 21.6592 56.8884 22.9959 56.2894 24.03C53.7653 28.3399 51.0024 32.6073 48.4252 37.0341C48.3848 37.1036 48.3446 37.1729 48.3047 37.2419C47.9905 37.785 47.6849 38.3229 47.3812 38.8673C44.6341 43.7971 42.4124 48.7567 39.6579 53.4609C39.4288 53.8605 39.3623 54.3347 39.4775 54.782C39.5926 55.2293 39.8792 55.6124 40.275 55.8477C40.6709 56.0829 41.1444 56.1516 41.5923 56.039C42.0402 55.9264 42.4251 55.6413 42.6666 55.2491C42.6666 55.2491 42.6666 55.2491 42.6666 55.2491C45.648 50.4994 48.0305 45.4126 50.663 40.6979C50.9575 40.1699 51.2535 39.6481 51.5576 39.1204C51.5963 39.0533 51.6353 38.9858 51.6745 38.9181C54.1882 34.5822 56.9033 30.3244 59.4949 25.8881C60.1531 24.6951 60.7892 23.7954 61.4225 22.045L62.8396 17.1973L58.6272 19.9814C51.1821 27.1387 46.4763 34.5847 40.4906 41.6634C40.0577 42.178 39.6596 42.6447 39.2358 43.0959C39.1513 43.1858 39.0275 43.3124 38.9507 43.3849C38.9005 43.4424 38.7259 43.5601 38.928 43.4292C39.0321 43.388 39.1926 43.2277 39.8092 43.2323C39.9947 43.1958 40.873 43.4769 41.1595 43.9674C41.4844 44.4389 41.4804 44.7779 41.4895 44.9533C41.4808 45.282 41.4465 45.2802 41.4536 45.2807C41.4619 45.2529 41.4994 45.1516 41.5659 45.0027C46.6347 34.0904 53.0775 23.6425 58.6846 12.5534C58.9698 11.9586 59.286 11.2907 59.5547 10.5881C59.6327 10.3819 59.7071 10.1676 59.7655 9.95882C59.8042 9.81984 59.847 9.6461 59.8732 9.4537C59.8798 9.40459 59.8856 9.35294 59.8899 9.29749C59.8921 9.26976 59.8939 9.24107 59.8952 9.21122C59.8974 9.16265 59.8985 9.09751 59.8964 9.0329C59.8802 8.77787 59.8648 8.3856 59.5007 7.87771C59.3416 7.65045 58.9787 7.34445 58.6153 7.22518C58.2494 7.09507 57.9197 7.09924 57.6816 7.13342C57.1441 7.2376 57.1376 7.29845 56.9968 7.3556C56.773 7.47066 56.602 7.59804 56.4778 7.69551C56.2987 7.83734 56.1339 7.9878 55.9574 8.1601C50.1268 15.5335 46.735 22.9485 42.395 30.3961C40.3138 34.1036 38.2179 37.8374 36.0726 41.4552C34.9914 43.2723 33.8855 45.0905 32.7324 46.7978C32.1726 47.6224 31.5414 48.509 30.9651 49.1533C30.8039 49.3313 30.6989 49.4379 30.5719 49.5481C30.5164 49.5956 30.4834 49.616 30.4965 49.6077C30.4983 49.614 30.6173 49.5025 31.0063 49.4822C31.1689 49.471 31.5237 49.5223 31.7847 49.6819C32.0519 49.8332 32.2275 50.061 32.2935 50.1778C32.3984 50.3611 32.3994 50.4375 32.3996 50.4267C32.3921 50.3847 32.3808 50.242 32.3905 50.0139C32.4054 49.6844 32.4402 49.3654 32.5081 48.907C33.9745 44.8768 36.6562 39.5238 38.7853 34.7981C39.8979 32.3639 41 29.9397 42.0438 27.4366C42.563 26.1651 43.0775 24.9511 43.4967 23.4736C43.5549 23.2561 43.6031 23.0512 43.6404 22.8391C43.6667 22.688 43.6875 22.5355 43.6973 22.3654C43.702 22.2801 43.704 22.1902 43.7003 22.0911C43.6947 21.9493 43.6774 21.736 43.6001 21.4867C43.5077 21.2257 43.4188 20.9453 42.9951 20.5636C42.5478 20.1642 41.8712 20.0582 41.4813 20.1272C41.3811 20.1405 41.2806 20.1632 41.2109 20.1826C41.1666 20.1948 41.1249 20.2078 41.0853 20.2213C41.006 20.2484 40.9353 20.2774 40.8706 20.3071C40.7414 20.3665 40.6356 20.428 40.54 20.4894C40.45 20.5468 40.3421 20.6268 40.2953 20.6638C40.247 20.7014 40.2004 20.7394 40.1546 20.7782C40.0633 20.8557 39.9753 20.9361 39.8872 21.021C39.6835 21.2193 39.6026 21.3084 39.4658 21.457C39.3421 21.5923 39.1919 21.7647 39.0778 21.8999C38.8693 22.1464 38.6452 22.4229 38.4022 22.7335C37.9848 23.2672 37.5603 23.805 37.1367 24.3373C31.9347 30.8213 26.4439 37.3401 20.8245 43.2349C20.7347 43.3223 20.6797 43.3745 20.6157 43.4319C20.5973 43.4497 20.552 43.4824 20.6241 43.429C20.6458 43.4139 20.6777 43.3914 20.7403 43.3558C20.7561 43.3468 20.7739 43.3371 20.7947 43.3264C20.8236 43.3131 20.8057 43.3157 20.9512 43.2559C21.0777 43.2125 21.2561 43.1318 21.6524 43.1413C22.0231 43.1258 22.7816 43.4371 23.0775 43.9933C23.231 44.2515 23.2882 44.4913 23.3111 44.6715C23.3168 44.717 23.3203 44.7595 23.3223 44.7992C23.3232 44.8156 23.3237 44.831 23.3241 44.8463C23.3248 44.8767 23.3247 44.9054 23.324 44.9325C23.3211 45.0408 23.3096 45.1241 23.2974 45.1925C23.2723 45.3284 23.2445 45.408 23.2229 45.4684C23.1789 45.5857 23.1537 45.6275 23.1395 45.6548C25.0944 42.0162 26.8585 38.3427 28.5585 34.6088C29.4024 32.7415 30.2219 30.8651 30.9869 28.9245C31.3667 27.9539 31.7331 26.9811 32.0571 25.928C32.2087 25.417 32.3754 24.8682 32.4709 24.1581C32.4926 23.9652 32.5141 23.79 32.5002 23.4748C32.4875 23.3164 32.4889 23.2091 32.4041 22.8994C32.3021 22.6157 32.236 22.3088 31.7023 21.8689C31.4551 21.6795 31.141 21.5528 30.8571 21.5098C30.6354 21.4746 30.4338 21.4817 30.2617 21.5065C30.089 21.5316 29.9434 21.5737 29.8161 21.6205C29.7143 21.6584 29.6514 21.6871 29.578 21.7228C29.4372 21.792 29.3162 21.8657 29.2025 21.9425C29.1005 22.0122 29.0405 22.0577 28.9628 22.1183C28.8632 22.1966 28.7664 22.2789 28.6692 22.3663C23.1683 27.3251 18.0715 32.8248 12.6492 37.3329C12.3685 37.5501 12.0413 37.7846 11.8214 37.9103C11.7617 37.9447 11.7203 37.9653 11.6996 37.9747C11.6934 37.9834 11.655 37.973 11.8707 37.9406C11.9884 37.9368 12.1015 37.8979 12.472 38.022C12.8194 38.1373 13.1614 38.4999 13.2641 38.7573C13.3256 38.8907 13.3541 39.0064 13.3688 39.0956C13.3808 39.1726 13.382 39.2093 13.3833 39.2507C13.3846 39.328 13.378 39.3665 13.3759 39.3802C14.3585 36.391 16.9764 32.3904 18.8498 28.7633C19.837 26.8966 20.8036 25.0069 21.6081 22.9432C22.0007 21.9069 22.368 20.8549 22.5468 19.5895C22.6228 18.943 22.6809 18.2775 22.4398 17.4003C22.2377 16.5412 21.3791 15.5611 20.4647 15.2848C19.2594 14.8964 18.4187 15.0572 17.5429 15.2092C14.6979 16.1941 13.7478 17.5712 12.1052 18.5771C11.6352 18.8938 11.1603 19.1869 10.7327 19.3847C10.3224 19.6012 9.89479 19.5974 10.0821 19.6123C10.4282 19.7393 10.5894 19.9373 10.6632 20.0352C10.7281 20.1274 10.7316 20.1463 10.7426 20.1675C10.7557 20.1992 10.7375 20.1553 10.7256 20.1072C10.6937 19.9837 10.6685 19.8447 10.6422 19.6555C10.6187 19.4848 10.5999 19.3083 10.5826 19.1044C10.5675 18.9262 10.5544 18.7319 10.5434 18.5243C10.5028 17.7429 10.4965 16.9313 10.5064 16.1085C10.5278 14.4802 10.6133 12.8237 10.7454 11.1854C10.8798 9.55095 11.0589 7.89508 11.3349 6.33832C11.4741 5.56582 11.6564 4.73372 11.8693 4.23835C11.8948 4.13573 12.0413 4.04091 11.7544 4.29807C11.6553 4.37248 11.4785 4.47209 11.2413 4.50752C10.9999 4.54828 10.7169 4.49266 10.545 4.40544C10.2228 4.23016 10.2338 4.16134 10.2066 4.14161C10.2146 4.12732 10.3931 4.55363 10.4735 4.85575C10.5112 4.98507 10.5504 5.13034 10.5905 5.29119C10.5491 5.06283 10.5808 5.18839 10.5642 5.28115C10.5567 5.36734 10.5348 5.51738 10.5133 5.63843C10.4641 5.9173 10.3986 6.21109 10.3305 6.49868C10.1891 7.09283 10.0227 7.71352 9.8569 8.32459C9.52203 9.55602 9.17018 10.8053 8.84907 12.0795C8.53489 13.3562 8.2169 14.6342 8.07907 16.0915C8.04839 16.4778 8.02893 16.8546 8.07314 17.3209C8.16373 17.7351 8.06983 18.4852 9.14108 19.2398C9.40607 19.3954 9.686 19.4745 9.9569 19.498C10.2209 19.5185 10.3985 19.4963 10.5949 19.4581C10.9602 19.3792 11.1891 19.2695 11.4117 19.1561C11.8235 18.9369 12.1213 18.7147 12.4416 18.4584C12.7396 18.2133 12.9454 18.0074 13.1579 17.7997C14.094 16.8662 14.9262 15.9413 15.7824 15.0312C16.2061 14.58 16.6354 14.1271 17.0558 13.7141C17.2634 13.5105 17.4832 13.3044 17.6609 13.1592C17.7295 13.0925 17.8924 13.015 17.7025 13.0938C17.6802 13.1012 17.6112 13.1235 17.521 13.1354C17.4226 13.1433 17.3237 13.169 17.053 13.0982C16.8049 13.0366 16.5109 12.8053 16.3961 12.6085C16.2651 12.4101 16.229 12.1995 16.2228 12.1378C16.2039 11.8162 16.242 11.8695 16.2329 11.869C16.1805 12.0662 16.1291 12.2666 16.0801 12.4644C16.0074 12.7573 15.9396 13.0491 15.8754 13.3418C15.6248 14.4861 15.4266 15.6343 15.2603 16.786C15.177 17.3667 15.1028 17.9393 15.0399 18.5327C15.009 18.8289 14.9811 19.124 14.9619 19.4396C14.9534 19.591 14.9445 19.7607 14.9478 19.9544C14.956 20.0759 14.9347 20.1203 15.007 20.4347C15.0196 20.4797 15.033 20.524 15.0617 20.5921C15.1076 20.6932 15.1717 20.838 15.3664 21.0085C15.4606 21.087 15.601 21.1862 15.8285 21.2394C16.0444 21.29 16.2697 21.2614 16.4261 21.2044C16.5057 21.1763 16.5717 21.143 16.6268 21.1099C16.6724 21.0821 16.6892 21.0698 16.7161 21.0502C16.7651 21.0138 16.8036 20.9794 16.836 20.9476C16.9661 20.8155 17.0003 20.7455 17.0288 20.7028C17.0584 20.6541 17.0811 20.6112 17.1015 20.5699C17.2016 20.3649 17.3012 20.1623 17.4005 19.9623C18.2263 18.2988 19.0484 16.6347 19.8756 14.9777C20.2895 14.1495 20.7035 13.3247 21.1254 12.5053C21.3357 12.0974 21.5486 11.6895 21.7621 11.2974C21.8719 11.0963 21.9763 10.9089 22.0841 10.7277C22.1385 10.6365 22.1923 10.5505 22.2322 10.4929C22.2508 10.4647 22.275 10.4378 22.2445 10.4724C22.2373 10.48 22.2149 10.5047 22.1716 10.5403C22.1488 10.5588 22.1228 10.5791 22.0778 10.6074C22.0042 10.6512 21.8921 10.7187 21.6794 10.7496C21.5723 10.7634 21.4482 10.765 21.2978 10.7286C21.1329 10.6894 20.9682 10.5985 20.8537 10.4936C20.6224 10.2855 20.5654 10.048 20.556 10.021C20.5179 9.88223 20.5208 9.81595 20.5195 9.77333Z" fill="#FF2D2D"/>
</svg>
